<svg id="visual" viewBox="0 0 900 675" width="900" height="675" xmlns="http://www.w3.org/2000/svg" xmlns:xlink="http://www.w3.org/1999/xlink" version="1.1"><path d="M0 42L82 116L164 42L245 62L327 116L409 55L491 69L573 62L655 42L736 62L818 69L900 109L900 0L818 0L736 0L655 0L573 0L491 0L409 0L327 0L245 0L164 0L82 0L0 0Z" fill="#0095cc"></path><path d="M0 217L82 352L164 298L245 359L327 325L409 170L491 298L573 264L655 217L736 359L818 210L900 264L900 107L818 67L736 60L655 40L573 60L491 67L409 53L327 114L245 60L164 40L82 114L0 40Z" fill="#056e9e"></path><path d="M0 521L82 548L164 399L245 467L327 555L409 473L491 433L573 487L655 420L736 460L818 447L900 467L900 262L818 208L736 357L655 215L573 262L491 296L409 168L327 323L245 357L164 296L82 350L0 215Z" fill="#035882"></path><path d="M0 588L82 615L164 575L245 582L327 636L409 588L491 541L573 561L655 582L736 555L818 575L900 548L900 465L818 445L736 458L655 418L573 485L491 431L409 471L327 553L245 465L164 397L82 546L0 519Z" fill="#056e9e"></path><path d="M0 676L82 676L164 676L245 676L327 676L409 676L491 676L573 676L655 676L736 676L818 676L900 676L900 546L818 573L736 553L655 580L573 559L491 539L409 586L327 634L245 580L164 573L82 613L0 586Z" fill="#0095cc"></path></svg>